<?xml version="1.0" encoding="UTF-8" standalone="no"?>
<svg
   width="96.586693"
   viewBox="0 0 96.586691 86.207419"
   height="86.20742"
   version="1.0"
   id="svg3201"
   sodipodi:docname="Future-Connect-Logo.svg"
   inkscape:export-filename="C:\Users\steve\Downloads\Rose-Logo2.png"
   inkscape:export-xdpi="96"
   inkscape:export-ydpi="96"
   inkscape:version="1.1.2 (b8e25be833, 2022-02-05)"
   xmlns:inkscape="http://www.inkscape.org/namespaces/inkscape"
   xmlns:sodipodi="http://sodipodi.sourceforge.net/DTD/sodipodi-0.dtd"
   xmlns="http://www.w3.org/2000/svg"
   xmlns:svg="http://www.w3.org/2000/svg">
  <defs
     id="defs3205" />
  <sodipodi:namedview
     id="namedview3203"
     pagecolor="#ffffff"
     bordercolor="#666666"
     borderopacity="1.0"
     inkscape:pageshadow="2"
     inkscape:pageopacity="0.0"
     inkscape:pagecheckerboard="true"
     showgrid="false"
     inkscape:zoom="2.216"
     inkscape:cx="-98.601083"
     inkscape:cy="94.765343"
     inkscape:window-width="1920"
     inkscape:window-height="1017"
     inkscape:window-x="-8"
     inkscape:window-y="-8"
     inkscape:window-maximized="1"
     inkscape:current-layer="svg3201"
     lock-margins="true"
     fit-margin-top="0"
     fit-margin-left="0"
     fit-margin-right="0"
     fit-margin-bottom="0" />
  <g
     fill="#c3921c"
     id="g2931"
     transform="translate(-139.09409,-124.98026)">
    <g
       id="g2929">
      <g
         id="g2927" />
    </g>
  </g>
  <g
     fill="#c3921c"
     id="g2939"
     transform="translate(-139.09409,-124.98026)">
    <g
       id="g2937">
      <g
         id="g2935" />
    </g>
  </g>
  <g
     fill="#c3921c"
     id="g2947"
     transform="translate(-139.09409,-124.98026)">
    <g
       id="g2945">
      <g
         id="g2943" />
    </g>
  </g>
  <g
     fill="#c3921c"
     id="g2955"
     transform="translate(-139.09409,-124.98026)">
    <g
       id="g2953">
      <g
         id="g2951" />
    </g>
  </g>
  <g
     fill="#c3921c"
     id="g2963"
     transform="translate(-139.09409,-124.98026)">
    <g
       id="g2961">
      <g
         id="g2959" />
    </g>
  </g>
  <g
     fill="#c3921c"
     id="g2971"
     transform="translate(-139.09409,-124.98026)">
    <g
       id="g2969">
      <g
         id="g2967" />
    </g>
  </g>
  <g
     fill="#c3921c"
     id="g2979"
     transform="translate(-139.09409,-124.98026)">
    <g
       id="g2977">
      <g
         id="g2975" />
    </g>
  </g>
  <g
     fill="#c3921c"
     id="g2987"
     transform="translate(-139.09409,-124.98026)">
    <g
       id="g2985">
      <g
         id="g2983" />
    </g>
  </g>
  <g
     fill="#c3921c"
     id="g2995"
     transform="translate(-139.09409,-124.98026)">
    <g
       id="g2993">
      <g
         id="g2991" />
    </g>
  </g>
  <g
     fill="#c3921c"
     id="g3003"
     transform="translate(-139.09409,-124.98026)">
    <g
       id="g3001">
      <g
         id="g2999" />
    </g>
  </g>
  <g
     fill="#c3921c"
     id="g3011"
     transform="translate(-139.09409,-124.98026)">
    <g
       id="g3009">
      <g
         id="g3007" />
    </g>
  </g>
  <g
     fill="#c3921c"
     id="g3019"
     transform="translate(-139.09409,-124.98026)">
    <g
       id="g3017">
      <g
         id="g3015" />
    </g>
  </g>
  <g
     fill="#c3921c"
     id="g3027"
     transform="translate(-139.09409,-124.98026)">
    <g
       id="g3025">
      <g
         id="g3023" />
    </g>
  </g>
  <g
     fill="#ffffff"
     id="g3035"
     transform="translate(-139.09409,-124.98026)">
    <g
       id="g3033">
      <g
         id="g3031" />
    </g>
  </g>
  <g
     fill="#ffffff"
     id="g3043"
     transform="translate(-139.09409,-124.98026)">
    <g
       id="g3041">
      <g
         id="g3039" />
    </g>
  </g>
  <g
     fill="#ffffff"
     id="g3051"
     transform="translate(-139.09409,-124.98026)">
    <g
       id="g3049">
      <g
         id="g3047" />
    </g>
  </g>
  <g
     fill="#ffffff"
     id="g3059"
     transform="translate(-139.09409,-124.98026)">
    <g
       id="g3057">
      <g
         id="g3055" />
    </g>
  </g>
  <g
     fill="#ffffff"
     id="g3067"
     transform="translate(-139.09409,-124.98026)">
    <g
       id="g3065">
      <g
         id="g3063" />
    </g>
  </g>
  <g
     fill="#ffffff"
     id="g3075"
     transform="translate(-139.09409,-124.98026)">
    <g
       id="g3073">
      <g
         id="g3071" />
    </g>
  </g>
  <g
     fill="#ffffff"
     id="g3083"
     transform="translate(-139.09409,-124.98026)">
    <g
       id="g3081">
      <g
         id="g3079" />
    </g>
  </g>
  <g
     fill="#ffffff"
     id="g3091"
     transform="translate(-139.09409,-124.98026)">
    <g
       id="g3089">
      <g
         id="g3087" />
    </g>
  </g>
  <g
     fill="#ffffff"
     id="g3099"
     transform="translate(-139.09409,-124.98026)">
    <g
       id="g3097">
      <g
         id="g3095" />
    </g>
  </g>
  <g
     fill="#ffffff"
     id="g3107"
     transform="translate(-139.09409,-124.98026)">
    <g
       id="g3105">
      <g
         id="g3103" />
    </g>
  </g>
  <g
     fill="#ffffff"
     id="g3115"
     transform="translate(-139.09409,-124.98026)">
    <g
       id="g3113">
      <g
         id="g3111" />
    </g>
  </g>
  <g
     fill="#ffffff"
     id="g3123"
     transform="translate(-139.09409,-124.98026)">
    <g
       id="g3121">
      <g
         id="g3119" />
    </g>
  </g>
  <g
     fill="#ffffff"
     id="g3131"
     transform="translate(-139.09409,-124.98026)">
    <g
       id="g3129">
      <g
         id="g3127" />
    </g>
  </g>
  <g
     fill="#ffffff"
     id="g3139"
     transform="translate(-139.09409,-124.98026)">
    <g
       id="g3137">
      <g
         id="g3135" />
    </g>
  </g>
  <g
     fill="#ffffff"
     id="g3147"
     transform="translate(-139.09409,-124.98026)">
    <g
       id="g3145">
      <g
         id="g3143" />
    </g>
  </g>
  <g
     fill="#ffffff"
     id="g3155"
     transform="translate(-139.09409,-124.98026)">
    <g
       id="g3153">
      <g
         id="g3151" />
    </g>
  </g>
  <g
     fill="#ffffff"
     id="g3163"
     transform="translate(-139.09409,-124.98026)">
    <g
       id="g3161">
      <g
         id="g3159" />
    </g>
  </g>
  <g
     fill="#ffffff"
     id="g3171"
     transform="translate(-139.09409,-124.98026)">
    <g
       id="g3169">
      <g
         id="g3167" />
    </g>
  </g>
  <g
     fill="#ffffff"
     id="g3179"
     transform="translate(-139.09409,-124.98026)">
    <g
       id="g3177">
      <g
         id="g3175" />
    </g>
  </g>
  <g
     fill="#ffffff"
     id="g3187"
     transform="translate(-139.09409,-124.98026)">
    <g
       id="g3185">
      <g
         id="g3183" />
    </g>
  </g>
  <path
     fill="#e4b548"
     d="m 78.452799,49.367393 2.15625,-1.07422 c 2.53906,3.51953 7.36328,4.74219 11.33984,2.60156 4.125,-2.22265 5.80078,-7.36718 3.78516,-11.60546 -2.13282,-4.46875 -7.49219,-6.3086 -11.90235,-4.11329 -1.53515,0.76563 -2.75,1.91797 -3.58593,3.27735 l -4.05469,-8.17578 -13.66016,-0.85157 c -2.30078,-0.14843 -4.28515,1.60547 -4.42969,3.91407 -0.14453,2.30468 1.60547,4.29297 3.91016,4.4375 l 8.84766,0.55468 1.29297,2.60938 -3.12891,4.82812 8.77734,17.70704 7.85157,0.41406 -7.19922,-14.52344"
     id="path3189" />
  <path
     fill="#ffffff"
     d="m 57.960609,72.406453 2.00781,1.33594 c -1.77344,3.96484 -0.41797,8.76563 3.42188,11.14453 3.98047,2.46875 9.26562,1.34766 11.91797,-2.51953 2.79687,-4.08203 1.70703,-9.65625 -2.39454,-12.38672 -1.42968,-0.94922 -3.03125,-1.42578 -4.625,-1.47265 l 5.03516,-7.60547 -6.08984,-12.28516 c -1.02735,-2.06641 -3.53125,-2.91406 -5.59766,-1.88281 -2.06641,1.02734 -2.91016,3.53906 -1.88281,5.60937 l 3.94531,7.95703 -1.60937,2.42579 -5.73829,-0.30079 -10.91015,16.47266 3.57031,7.01953 8.94922,-13.51172"
     id="path3191" />
  <path
     fill="#e4b548"
     d="m 27.800449,66.144733 -0.14843,2.41016 c -4.3125,0.44141 -7.78125,4.01953 -7.91797,8.53906 -0.14453,4.69141 3.46484,8.71875 8.13281,9.08594 4.92969,0.38672 9.19922,-3.34766 9.50781,-8.26953 0.10547,-1.71484 -0.28125,-3.34375 -1.03906,-4.75391 l 9.08984,0.57032 7.57032,-11.42969 c 1.27734,-1.92578 0.7539,-4.52344 -1.16797,-5.80078 -1.92188,-1.27735 -4.51563,-0.75391 -5.78907,1.17187 l -4.90234,7.40235 -2.90234,-0.17969 -2.60938,-5.13281 -19.691403,-1.23438 -4.28516,6.60938 16.152343,1.01171"
     id="path3193" />
  <path
     fill="#ffffff"
     d="m 18.136386,36.840053 -2.16016,1.07422 c -2.53515,-3.51954 -7.3632799,-4.74219 -11.3398399,-2.60157 -4.12500004,2.22266 -5.80078,7.36719 -3.78125004,11.60157 2.12891004,4.46875 7.49219004,6.3125 11.89843994,4.11718 1.53515,-0.76562 2.75,-1.91797 3.58594,-3.28125 l 4.054683,8.17578 13.66407,0.85547 c 2.30078,0.14453 4.28515,-1.60937 4.42578,-3.91406 0.14453,-2.30859 -1.60547,-4.29687 -3.90625,-4.4375 l -8.84766,-0.55469 -1.29297,-2.61328 3.12891,-4.82812 -8.781253,-17.70313 -7.85156,-0.41406 7.20312,14.52344"
     id="path3195" />
  <path
     fill="#e4b548"
     d="m 38.628579,13.797083 -2.00781,-1.33594 c 1.77343,-3.9609396 0.41406,-8.7617196 -3.42188,-11.1406196 -3.98437,-2.46875 -9.26953,-1.35156999 -11.91797,2.51953 -2.796873,4.08203 -1.71094,9.6562496 2.39453,12.3828096 1.42578,0.94922 3.03125,1.42969 4.625,1.47266 l -5.03906,7.60937 6.09375,12.28125 c 1.02344,2.07031 3.53125,2.91406 5.59766,1.88672 2.0664,-1.02734 2.90625,-3.53906 1.88281,-5.60938 l -3.94531,-7.95703 1.60547,-2.42968 5.73828,0.30468 10.91015,-16.4726496 -3.5664,-7.02343999 -8.94922,13.51171959"
     id="path3197" />
  <path
     fill="#ffffff"
     d="m 68.784829,20.062703 0.15234,-2.41015 c 4.3125,-0.44141 7.78125,-4.01953 7.91797,-8.5429696 0.14063,-4.6875 -3.46875,-8.71484999 -8.13672,-9.08202999 -4.92578,-0.38672 -9.19922,3.34374999 -9.50781,8.26952999 -0.10547,1.7148396 0.28516,3.3437496 1.04297,4.7499996 l -9.09375,-0.56641 -7.57031,11.42578 c -1.27344,1.92578 -0.75,4.52344 1.17187,5.80078 1.92188,1.28125 4.51172,0.75391 5.78906,-1.17187 l 4.90235,-7.40234 2.90234,0.18359 2.60938,5.13281 19.6875,1.23047 4.28515,-6.60547 -16.15234,-1.01172"
     id="path3199" />
</svg>
