<?xml version="1.0" encoding="UTF-8" standalone="no"?>
<!-- Created with Inkscape (http://www.inkscape.org/) -->

<svg
   width="68.79454mm"
   height="38.509075mm"
   viewBox="0 0 68.79454 38.509075"
   version="1.1"
   id="svg5"
   xmlns="http://www.w3.org/2000/svg"
   xmlns:svg="http://www.w3.org/2000/svg">
  <defs
     id="defs2" />
  <g
     id="layer1"
     transform="translate(-137.99531,-175.77232)">
    <g
       id="g1861"
       transform="matrix(0.26458333,0,0,0.26458333,49.609376,125.16032)">
      <g
         fill="#c3921c"
         id="g309"
         transform="translate(275.72494,66.309206)">
        <g
           id="g307">
          <g
             id="g305">
            <path
               d="m 15.328125,-14.578125 h -8.875 v 4.21875 H 14.625 V -6.71875 H 6.453125 V 0 h -4.625 v -18.21875 h 13.5 z m 0,0"
               transform="translate(56.504,245.348)"
               id="path303" />
          </g>
        </g>
      </g>
      <g
         fill="#c3921c"
         id="g317"
         transform="translate(275.72494,66.309206)">
        <g
           id="g315">
          <g
             id="g313">
            <path
               d="m 18.21875,-18.21875 v 10.5625 c 0,2.417969 -0.746094,4.335938 -2.234375,5.75 C 14.492188,-0.5 12.472656,0.203125 9.921875,0.203125 7.347656,0.203125 5.300781,-0.5 3.78125,-1.90625 2.269531,-3.320312 1.515625,-5.238281 1.515625,-7.65625 v -10.5625 h 4.625 v 10.5625 c 0,1.21875 0.347656,2.1875 1.046875,2.90625 0.707031,0.71875 1.625,1.078125 2.75,1.078125 1.113281,0 2.003906,-0.351563 2.671875,-1.0625 0.664063,-0.71875 1,-1.691406 1,-2.921875 v -10.5625 z m 0,0"
               transform="translate(73.544,245.348)"
               id="path311" />
          </g>
        </g>
      </g>
      <g
         fill="#c3921c"
         id="g325"
         transform="translate(275.72494,66.309206)">
        <g
           id="g323">
          <g
             id="g321">
            <path
               d="m 15.75,-14.5 h -5.5 V 0 H 5.625 V -14.5 H 0.1875 v -3.75 H 15.75 Z m 0,0"
               transform="translate(94.592,245.348)"
               id="path319" />
          </g>
        </g>
      </g>
      <g
         fill="#c3921c"
         id="g333"
         transform="translate(275.72494,66.309206)">
        <g
           id="g331">
          <g
             id="g329">
            <path
               d="m 18.21875,-18.21875 v 10.5625 c 0,2.417969 -0.746094,4.335938 -2.234375,5.75 C 14.492188,-0.5 12.472656,0.203125 9.921875,0.203125 7.347656,0.203125 5.300781,-0.5 3.78125,-1.90625 2.269531,-3.320312 1.515625,-5.238281 1.515625,-7.65625 v -10.5625 h 4.625 v 10.5625 c 0,1.21875 0.347656,2.1875 1.046875,2.90625 0.707031,0.71875 1.625,1.078125 2.75,1.078125 1.113281,0 2.003906,-0.351563 2.671875,-1.0625 0.664063,-0.71875 1,-1.691406 1,-2.921875 v -10.5625 z m 0,0"
               transform="translate(111.815,245.348)"
               id="path327" />
          </g>
        </g>
      </g>
      <g
         fill="#c3921c"
         id="g341"
         transform="translate(275.72494,66.309206)">
        <g
           id="g339">
          <g
             id="g337">
            <path
               d="M 12.8125,0 10.09375,-5.125 H 6.453125 V 0 h -4.625 V -18.21875 H 9.96875 c 2.414062,0 4.28125,0.554688 5.59375,1.65625 1.320312,1.09375 1.984375,2.65625 1.984375,4.6875 0,2.8125 -1.105469,4.765625 -3.3125,5.859375 L 18.0625,0 Z M 6.453125,-8.765625 H 9.96875 c 1.007812,0 1.789062,-0.25 2.34375,-0.75 0.550781,-0.507813 0.828125,-1.242187 0.828125,-2.203125 0,-0.9375 -0.277344,-1.644531 -0.828125,-2.125 -0.554688,-0.488281 -1.335938,-0.734375 -2.34375,-0.734375 H 6.453125 Z m 0,0"
               transform="translate(132.862,245.348)"
               id="path335" />
          </g>
        </g>
      </g>
      <g
         fill="#c3921c"
         id="g349"
         transform="translate(275.72494,66.309206)">
        <g
           id="g347">
          <g
             id="g345">
            <path
               d="M 16.09375,-14.578125 H 6.453125 v 3.625 H 15.15625 V -7.3125 H 6.453125 v 3.671875 H 16.375 V 0 H 1.828125 V -18.21875 H 16.09375 Z m 0,0"
               transform="translate(153.024,245.348)"
               id="path343" />
          </g>
        </g>
      </g>
      <g
         fill="#c3921c"
         id="g357"
         transform="translate(275.72494,66.309206)">
        <g
           id="g355">
          <g
             id="g353">
            <path
               d="m 10.359375,-18.375 c 1.351563,0 2.6875,0.277344 4,0.828125 1.3125,0.554687 2.425781,1.296875 3.34375,2.234375 l -2.6875,3.1875 c -0.585937,-0.726562 -1.292969,-1.304688 -2.125,-1.734375 C 12.066406,-14.285156 11.25,-14.5 10.4375,-14.5 c -1.4375,0 -2.648438,0.511719 -3.625,1.53125 -0.96875,1.011719 -1.453125,2.261719 -1.453125,3.75 0,1.53125 0.484375,2.808594 1.453125,3.828125 0.976562,1.023437 2.1875,1.53125 3.625,1.53125 0.757812,0 1.550781,-0.1875 2.375,-0.5625 0.832031,-0.382813 1.566406,-0.90625 2.203125,-1.5625 l 2.71875,2.859375 c -0.992187,1.011719 -2.164063,1.820312 -3.515625,2.421875 -1.34375,0.6054688 -2.683594,0.90625 -4.015625,0.90625 -2.742187,0 -5.023437,-0.890625 -6.84375,-2.671875 C 1.535156,-4.257812 0.625,-6.488281 0.625,-9.15625 c 0,-2.625 0.925781,-4.816406 2.78125,-6.578125 1.863281,-1.757813 4.179688,-2.640625 6.953125,-2.640625 z m 0,0"
               transform="translate(179.25,245.348)"
               id="path351" />
          </g>
        </g>
      </g>
      <g
         fill="#c3921c"
         id="g365"
         transform="translate(275.72494,66.309206)">
        <g
           id="g363">
          <g
             id="g361">
            <path
               d="m 10.46875,-18.375 c 2.820312,0 5.171875,0.882812 7.046875,2.640625 1.875,1.761719 2.8125,3.960937 2.8125,6.59375 0,2.65625 -0.945313,4.882813 -2.828125,6.671875 -1.875,1.78125 -4.21875,2.671875 -7.03125,2.671875 -2.8125,0 -5.15625,-0.882813 -7.03125,-2.65625 -1.875,-1.78125 -2.8125,-4.007813 -2.8125,-6.6875 0,-2.65625 0.9375,-4.859375 2.8125,-6.609375 1.875,-1.75 4.21875,-2.625 7.03125,-2.625 z m 0.04687,3.875 c -1.429687,0 -2.648437,0.515625 -3.65625,1.546875 -1,1.03125 -1.5,2.3125 -1.5,3.84375 0,1.53125 0.503906,2.824219 1.515625,3.875 1.019531,1.042969 2.234375,1.5625 3.640625,1.5625 1.40625,0 2.597656,-0.519531 3.578125,-1.5625 0.976562,-1.050781 1.46875,-2.34375 1.46875,-3.875 0,-1.53125 -0.492188,-2.8125 -1.46875,-3.84375 C 13.113281,-13.984375 11.921875,-14.5 10.515625,-14.5 Z m 0,0"
               transform="translate(198.58,245.348)"
               id="path359" />
          </g>
        </g>
      </g>
      <g
         fill="#c3921c"
         id="g373"
         transform="translate(275.72494,66.309206)">
        <g
           id="g371">
          <g
             id="g369">
            <path
               d="m 18.640625,0 h -4.09375 l -8.375,-11.21875 V 0 H 1.828125 V -18.21875 H 5.90625 l 8.40625,11.25 v -11.25 h 4.328125 z m 0,0"
               transform="translate(220.85,245.348)"
               id="path367" />
          </g>
        </g>
      </g>
      <g
         fill="#c3921c"
         id="g381"
         transform="translate(275.72494,66.309206)">
        <g
           id="g379">
          <g
             id="g377">
            <path
               d="m 18.640625,0 h -4.09375 l -8.375,-11.21875 V 0 H 1.828125 V -18.21875 H 5.90625 l 8.40625,11.25 v -11.25 h 4.328125 z m 0,0"
               transform="translate(242.625,245.348)"
               id="path375" />
          </g>
        </g>
      </g>
      <g
         fill="#c3921c"
         id="g389"
         transform="translate(275.72494,66.309206)">
        <g
           id="g387">
          <g
             id="g385">
            <path
               d="M 16.09375,-14.578125 H 6.453125 v 3.625 H 15.15625 V -7.3125 H 6.453125 v 3.671875 H 16.375 V 0 H 1.828125 V -18.21875 H 16.09375 Z m 0,0"
               transform="translate(264.4,245.348)"
               id="path383" />
          </g>
        </g>
      </g>
      <g
         fill="#c3921c"
         id="g397"
         transform="translate(275.72494,66.309206)">
        <g
           id="g395">
          <g
             id="g393">
            <path
               d="m 10.359375,-18.375 c 1.351563,0 2.6875,0.277344 4,0.828125 1.3125,0.554687 2.425781,1.296875 3.34375,2.234375 l -2.6875,3.1875 c -0.585937,-0.726562 -1.292969,-1.304688 -2.125,-1.734375 C 12.066406,-14.285156 11.25,-14.5 10.4375,-14.5 c -1.4375,0 -2.648438,0.511719 -3.625,1.53125 -0.96875,1.011719 -1.453125,2.261719 -1.453125,3.75 0,1.53125 0.484375,2.808594 1.453125,3.828125 0.976562,1.023437 2.1875,1.53125 3.625,1.53125 0.757812,0 1.550781,-0.1875 2.375,-0.5625 0.832031,-0.382813 1.566406,-0.90625 2.203125,-1.5625 l 2.71875,2.859375 c -0.992187,1.011719 -2.164063,1.820312 -3.515625,2.421875 -1.34375,0.6054688 -2.683594,0.90625 -4.015625,0.90625 -2.742187,0 -5.023437,-0.890625 -6.84375,-2.671875 C 1.535156,-4.257812 0.625,-6.488281 0.625,-9.15625 c 0,-2.625 0.925781,-4.816406 2.78125,-6.578125 1.863281,-1.757813 4.179688,-2.640625 6.953125,-2.640625 z m 0,0"
               transform="translate(283.263,245.348)"
               id="path391" />
          </g>
        </g>
      </g>
      <g
         fill="#c3921c"
         id="g405"
         transform="translate(275.72494,66.309206)">
        <g
           id="g403">
          <g
             id="g401">
            <path
               d="m 15.75,-14.5 h -5.5 V 0 H 5.625 V -14.5 H 0.1875 v -3.75 H 15.75 Z"
               transform="translate(302.593,245.348)"
               id="path399" />
          </g>
        </g>
      </g>
      <g
         fill="#ffffff"
         id="g413"
         transform="translate(275.72494,66.309206)">
        <g
           id="g411">
          <g
             id="g409">
            <path
               d="M 0.265625,-6.625 H 1.21875 L 2.25,-0.8125 H 2.5 L 3.796875,-6.59375 H 4.875 L 6.171875,-0.8125 H 6.40625 L 7.453125,-6.625 H 8.40625 L 7.078125,0 H 5.53125 L 4.34375,-5.46875 3.140625,0 h -1.5625 z m 0,0"
               transform="translate(98.42,270.417)"
               id="path407" />
          </g>
        </g>
      </g>
      <g
         fill="#ffffff"
         id="g421"
         transform="translate(275.72494,66.309206)">
        <g
           id="g419">
          <g
             id="g417">
            <path
               d="M 5.734375,-6.625 V 0 H 4.8125 V -2.921875 H 1.71875 V 0 H 0.796875 V -6.625 H 1.71875 v 2.890625 H 4.8125 V -6.625 Z m 0,0"
               transform="translate(109.685,270.417)"
               id="path415" />
          </g>
        </g>
      </g>
      <g
         fill="#ffffff"
         id="g429"
         transform="translate(275.72494,66.309206)">
        <g
           id="g427">
          <g
             id="g425">
            <path
               d="m 1.71875,-5.828125 v 2.0625 H 4.3125 v 0.8125 H 1.71875 V -0.8125 H 4.890625 V 0 h -4.09375 v -6.625 h 4.09375 v 0.796875 z m 0,0"
               transform="translate(118.79,270.417)"
               id="path423" />
          </g>
        </g>
      </g>
      <g
         fill="#ffffff"
         id="g437"
         transform="translate(275.72494,66.309206)">
        <g
           id="g435">
          <g
             id="g433">
            <path
               d="M 0.796875,-6.625 H 3.28125 c 0.726562,0 1.273438,0.171875 1.640625,0.515625 0.363281,0.335937 0.546875,0.851563 0.546875,1.546875 0,0.96875 -0.386719,1.609375 -1.15625,1.921875 L 5.5,0 H 4.484375 L 3.40625,-2.453125 H 1.71875 V 0 H 0.796875 Z M 3.28125,-3.25 c 0.40625,0 0.710938,-0.109375 0.921875,-0.328125 0.207031,-0.226563 0.3125,-0.550781 0.3125,-0.96875 0,-0.414063 -0.105469,-0.734375 -0.3125,-0.953125 C 3.992188,-5.71875 3.6875,-5.828125 3.28125,-5.828125 H 1.71875 V -3.25 Z m 0,0"
               transform="translate(126.708,270.417)"
               id="path431" />
          </g>
        </g>
      </g>
      <g
         fill="#ffffff"
         id="g445"
         transform="translate(275.72494,66.309206)">
        <g
           id="g443">
          <g
             id="g441">
            <path
               d="m 1.71875,-5.828125 v 2.0625 H 4.3125 v 0.8125 H 1.71875 V -0.8125 H 4.890625 V 0 h -4.09375 v -6.625 h 4.09375 v 0.796875 z m 0,0"
               transform="translate(135.244,270.417)"
               id="path439" />
          </g>
        </g>
      </g>
      <g
         fill="#ffffff"
         id="g453"
         transform="translate(275.72494,66.309206)">
        <g
           id="g451">
          <g
             id="g449">
            <path
               d="M 2.15625,-2.75 0.0625,-6.625 H 1.09375 L 2.625,-3.671875 4.140625,-6.625 h 1.03125 L 3.078125,-2.75 V 0 H 2.15625 Z m 0,0"
               transform="translate(147.869,270.417)"
               id="path447" />
          </g>
        </g>
      </g>
      <g
         fill="#ffffff"
         id="g461"
         transform="translate(275.72494,66.309206)">
        <g
           id="g459">
          <g
             id="g457">
            <path
               d="M 3.171875,0.109375 C 2.503906,0.109375 1.976562,-0.0078125 1.59375,-0.25 1.207031,-0.488281 0.929688,-0.851562 0.765625,-1.34375 c -0.167969,-0.488281 -0.25,-1.132812 -0.25,-1.9375 0,-0.800781 0.082031,-1.453125 0.25,-1.953125 0.164063,-0.507813 0.441406,-0.882813 0.828125,-1.125 0.394531,-0.25 0.921875,-0.375 1.578125,-0.375 0.65625,0 1.175781,0.125 1.5625,0.375 0.394531,0.242187 0.675781,0.609375 0.84375,1.109375 0.164063,0.5 0.25,1.15625 0.25,1.96875 0,0.804688 -0.085937,1.449219 -0.25,1.9375 C 5.410156,-0.851562 5.132812,-0.488281 4.75,-0.25 4.363281,-0.0078125 3.835938,0.109375 3.171875,0.109375 Z m 0,-0.828125 c 0.445313,0 0.789063,-0.082031 1.03125,-0.25 0.25,-0.164062 0.421875,-0.429688 0.515625,-0.796875 0.101562,-0.375 0.15625,-0.878906 0.15625,-1.515625 0,-0.632812 -0.054688,-1.140625 -0.15625,-1.515625 -0.105469,-0.382813 -0.28125,-0.664063 -0.53125,-0.84375 -0.242188,-0.1875 -0.578125,-0.28125 -1.015625,-0.28125 -0.4375,0 -0.78125,0.09375 -1.03125,0.28125 -0.242187,0.179687 -0.414063,0.460937 -0.515625,0.84375 -0.105469,0.375 -0.15625,0.882813 -0.15625,1.515625 0,0.617188 0.046875,1.109375 0.140625,1.484375 0.101563,0.367187 0.273437,0.636719 0.515625,0.8125 0.25,0.179687 0.597656,0.265625 1.046875,0.265625 z m 0,0"
               transform="translate(155.7,270.417)"
               id="path455" />
          </g>
        </g>
      </g>
      <g
         fill="#ffffff"
         id="g469"
         transform="translate(275.72494,66.309206)">
        <g
           id="g467">
          <g
             id="g465">
            <path
               d="M 3.109375,0.109375 C 2.304688,0.109375 1.707031,-0.0625 1.3125,-0.40625 0.925781,-0.757812 0.734375,-1.316406 0.734375,-2.078125 V -6.625 H 1.65625 v 4.5625 c 0,0.898438 0.476562,1.34375 1.4375,1.34375 0.5,0 0.875,-0.109375 1.125,-0.328125 0.25,-0.21875 0.375,-0.554687 0.375,-1.015625 V -6.625 H 5.5 v 4.546875 C 5.5,-1.316406 5.300781,-0.757812 4.90625,-0.40625 4.507812,-0.0625 3.910156,0.109375 3.109375,0.109375 Z m 0,0"
               transform="translate(164.631,270.417)"
               id="path463" />
          </g>
        </g>
      </g>
      <g
         fill="#ffffff"
         id="g477"
         transform="translate(275.72494,66.309206)">
        <g
           id="g475">
          <g
             id="g473">
            <path
               d="M 0.796875,-6.625 H 3.28125 c 0.726562,0 1.273438,0.171875 1.640625,0.515625 0.363281,0.335937 0.546875,0.851563 0.546875,1.546875 0,0.96875 -0.386719,1.609375 -1.15625,1.921875 L 5.5,0 H 4.484375 L 3.40625,-2.453125 H 1.71875 V 0 H 0.796875 Z M 3.28125,-3.25 c 0.40625,0 0.710938,-0.109375 0.921875,-0.328125 0.207031,-0.226563 0.3125,-0.550781 0.3125,-0.96875 0,-0.414063 -0.105469,-0.734375 -0.3125,-0.953125 C 3.992188,-5.71875 3.6875,-5.828125 3.28125,-5.828125 H 1.71875 V -3.25 Z m 0,0"
               transform="translate(173.456,270.417)"
               id="path471" />
          </g>
        </g>
      </g>
      <g
         fill="#ffffff"
         id="g485"
         transform="translate(275.72494,66.309206)">
        <g
           id="g483">
          <g
             id="g481">
            <path
               d="m 2.625,0.09375 c -0.4375,0 -1.03125,-0.0625 -1.78125,-0.1875 l -0.359375,-0.046875 0.109375,-0.75 c 0.863281,0.117187 1.523438,0.171875 1.984375,0.171875 0.863281,0 1.296875,-0.394531 1.296875,-1.1875 C 3.875,-2.125 3.828125,-2.296875 3.734375,-2.421875 3.648438,-2.554688 3.507812,-2.660156 3.3125,-2.734375 3.113281,-2.816406 2.835938,-2.898438 2.484375,-2.984375 1.960938,-3.097656 1.554688,-3.226562 1.265625,-3.375 0.984375,-3.53125 0.773438,-3.726562 0.640625,-3.96875 0.503906,-4.207031 0.4375,-4.519531 0.4375,-4.90625 c 0,-0.613281 0.179688,-1.070312 0.546875,-1.375 0.363281,-0.3125 0.90625,-0.46875 1.625,-0.46875 0.257813,0 0.539063,0.015625 0.84375,0.046875 0.3125,0.03125 0.71875,0.089844 1.21875,0.171875 l -0.078125,0.75 C 3.707031,-5.875 3.070312,-5.921875 2.6875,-5.921875 c -0.886719,0 -1.328125,0.320313 -1.328125,0.953125 0,0.242188 0.046875,0.429688 0.140625,0.5625 0.101562,0.136719 0.265625,0.25 0.484375,0.34375 0.21875,0.085938 0.550781,0.179688 1,0.28125 0.457031,0.117188 0.8125,0.246094 1.0625,0.390625 0.257813,0.136719 0.445313,0.320313 0.5625,0.546875 0.125,0.21875 0.1875,0.511719 0.1875,0.875 0,0.6875 -0.1875,1.203125 -0.5625,1.546875 C 3.867188,-0.078125 3.332031,0.09375 2.625,0.09375 Z m 0,0"
               transform="translate(186.698,270.417)"
               id="path479" />
          </g>
        </g>
      </g>
      <g
         fill="#ffffff"
         id="g493"
         transform="translate(275.72494,66.309206)">
        <g
           id="g491">
          <g
             id="g489">
            <path
               d="M 2.078125,-5.8125 H 0.125 V -6.625 h 4.828125 v 0.8125 h -1.9375 V 0 h -0.9375 z m 0,0"
               transform="translate(194.52,270.417)"
               id="path487" />
          </g>
        </g>
      </g>
      <g
         fill="#ffffff"
         id="g501"
         transform="translate(275.72494,66.309206)">
        <g
           id="g499">
          <g
             id="g497">
            <path
               d="M 3.171875,0.109375 C 2.503906,0.109375 1.976562,-0.0078125 1.59375,-0.25 1.207031,-0.488281 0.929688,-0.851562 0.765625,-1.34375 c -0.167969,-0.488281 -0.25,-1.132812 -0.25,-1.9375 0,-0.800781 0.082031,-1.453125 0.25,-1.953125 0.164063,-0.507813 0.441406,-0.882813 0.828125,-1.125 0.394531,-0.25 0.921875,-0.375 1.578125,-0.375 0.65625,0 1.175781,0.125 1.5625,0.375 0.394531,0.242187 0.675781,0.609375 0.84375,1.109375 0.164063,0.5 0.25,1.15625 0.25,1.96875 0,0.804688 -0.085937,1.449219 -0.25,1.9375 C 5.410156,-0.851562 5.132812,-0.488281 4.75,-0.25 4.363281,-0.0078125 3.835938,0.109375 3.171875,0.109375 Z m 0,-0.828125 c 0.445313,0 0.789063,-0.082031 1.03125,-0.25 0.25,-0.164062 0.421875,-0.429688 0.515625,-0.796875 0.101562,-0.375 0.15625,-0.878906 0.15625,-1.515625 0,-0.632812 -0.054688,-1.140625 -0.15625,-1.515625 -0.105469,-0.382813 -0.28125,-0.664063 -0.53125,-0.84375 -0.242188,-0.1875 -0.578125,-0.28125 -1.015625,-0.28125 -0.4375,0 -0.78125,0.09375 -1.03125,0.28125 -0.242187,0.179687 -0.414063,0.460937 -0.515625,0.84375 -0.105469,0.375 -0.15625,0.882813 -0.15625,1.515625 0,0.617188 0.046875,1.109375 0.140625,1.484375 0.101563,0.367187 0.273437,0.636719 0.515625,0.8125 0.25,0.179687 0.597656,0.265625 1.046875,0.265625 z m 0,0"
               transform="translate(202.178,270.417)"
               id="path495" />
          </g>
        </g>
      </g>
      <g
         fill="#ffffff"
         id="g509"
         transform="translate(275.72494,66.309206)">
        <g
           id="g507">
          <g
             id="g505">
            <path
               d="M 0.796875,-6.625 H 3.28125 c 0.726562,0 1.273438,0.171875 1.640625,0.515625 0.363281,0.335937 0.546875,0.851563 0.546875,1.546875 0,0.96875 -0.386719,1.609375 -1.15625,1.921875 L 5.5,0 H 4.484375 L 3.40625,-2.453125 H 1.71875 V 0 H 0.796875 Z M 3.28125,-3.25 c 0.40625,0 0.710938,-0.109375 0.921875,-0.328125 0.207031,-0.226563 0.3125,-0.550781 0.3125,-0.96875 0,-0.414063 -0.105469,-0.734375 -0.3125,-0.953125 C 3.992188,-5.71875 3.6875,-5.828125 3.28125,-5.828125 H 1.71875 V -3.25 Z m 0,0"
               transform="translate(211.11,270.417)"
               id="path503" />
          </g>
        </g>
      </g>
      <g
         fill="#ffffff"
         id="g517"
         transform="translate(275.72494,66.309206)">
        <g
           id="g515">
          <g
             id="g513">
            <path
               d="M 2.15625,-2.75 0.0625,-6.625 H 1.09375 L 2.625,-3.671875 4.140625,-6.625 h 1.03125 L 3.078125,-2.75 V 0 H 2.15625 Z m 0,0"
               transform="translate(219.645,270.417)"
               id="path511" />
          </g>
        </g>
      </g>
      <g
         fill="#ffffff"
         id="g525"
         transform="translate(275.72494,66.309206)">
        <g
           id="g523">
          <g
             id="g521">
            <path
               d="m 0.796875,-6.625 h 2.46875 c 0.675781,0 1.175781,0.140625 1.5,0.421875 0.320313,0.273437 0.484375,0.710937 0.484375,1.3125 0,0.375 -0.0625,0.679687 -0.1875,0.90625 -0.125,0.230469 -0.335938,0.417969 -0.625,0.5625 0.34375,0.125 0.59375,0.3125 0.75,0.5625 0.164062,0.25 0.25,0.589844 0.25,1.015625 C 5.4375,-0.613281 4.742188,0 3.359375,0 h -2.5625 z m 2.46875,2.859375 c 0.351563,0 0.613281,-0.082031 0.78125,-0.25 C 4.222656,-4.191406 4.3125,-4.457031 4.3125,-4.8125 c 0,-0.351562 -0.089844,-0.609375 -0.265625,-0.765625 -0.179687,-0.164063 -0.460937,-0.25 -0.84375,-0.25 H 1.71875 v 2.0625 z M 3.3125,-0.8125 c 0.394531,0 0.691406,-0.078125 0.890625,-0.234375 C 4.398438,-1.210938 4.5,-1.484375 4.5,-1.859375 4.5,-2.585938 4.09375,-2.953125 3.28125,-2.953125 H 1.71875 V -0.8125 Z m 0,0"
               transform="translate(232.183,270.417)"
               id="path519" />
          </g>
        </g>
      </g>
      <g
         fill="#ffffff"
         id="g533"
         transform="translate(275.72494,66.309206)">
        <g
           id="g531">
          <g
             id="g529">
            <path
               d="m 1.71875,-5.828125 v 2.0625 H 4.3125 v 0.8125 H 1.71875 V -0.8125 H 4.890625 V 0 h -4.09375 v -6.625 h 4.09375 v 0.796875 z m 0,0"
               transform="translate(240.69,270.417)"
               id="path527" />
          </g>
        </g>
      </g>
      <g
         fill="#ffffff"
         id="g541"
         transform="translate(275.72494,66.309206)">
        <g
           id="g539">
          <g
             id="g537">
            <path
               d="M 3.125,0.109375 C 2.476562,0.109375 1.960938,-0.0078125 1.578125,-0.25 1.191406,-0.5 0.914062,-0.875 0.75,-1.375 0.59375,-1.875 0.515625,-2.523438 0.515625,-3.328125 c 0,-0.800781 0.082031,-1.445313 0.25,-1.9375 0.164063,-0.5 0.4375,-0.867187 0.8125,-1.109375 0.375,-0.238281 0.878906,-0.359375 1.515625,-0.359375 0.582031,0 1.210938,0.0625 1.890625,0.1875 l 0.34375,0.0625 -0.046875,0.75 C 4.488281,-5.847656 3.816406,-5.90625 3.265625,-5.90625 c -0.5,0 -0.882813,0.09375 -1.140625,0.28125 -0.25,0.179688 -0.421875,0.453125 -0.515625,0.828125 -0.09375,0.367187 -0.140625,0.875 -0.140625,1.53125 0,0.648437 0.050781,1.152344 0.15625,1.515625 0.101562,0.355469 0.28125,0.617188 0.53125,0.78125 0.25,0.167969 0.597656,0.25 1.046875,0.25 0.4375,0 0.835937,-0.03125 1.203125,-0.09375 V -2.625 H 3.453125 v -0.8125 h 1.875 V -0.125 C 4.472656,0.03125 3.738281,0.109375 3.125,0.109375 Z m 0,0"
               transform="translate(248.608,270.417)"
               id="path535" />
          </g>
        </g>
      </g>
      <g
         fill="#ffffff"
         id="g549"
         transform="translate(275.72494,66.309206)">
        <g
           id="g547">
          <g
             id="g545">
            <path
               d="M 0.796875,-6.625 H 1.71875 V 0 H 0.796875 Z m 0,0"
               transform="translate(257.115,270.417)"
               id="path543" />
          </g>
        </g>
      </g>
      <g
         fill="#ffffff"
         id="g557"
         transform="translate(275.72494,66.309206)">
        <g
           id="g555">
          <g
             id="g553">
            <path
               d="M 5.78125,-6.625 V 0 H 4.171875 L 1.875,-5.828125 H 1.71875 V 0 H 0.796875 V -6.625 H 2.4375 l 2.25,5.8125 H 4.859375 V -6.625 Z m 0,0"
               transform="translate(262.188,270.417)"
               id="path551" />
          </g>
        </g>
      </g>
      <g
         fill="#ffffff"
         id="g565"
         transform="translate(275.72494,66.309206)">
        <g
           id="g563">
          <g
             id="g561">
            <path
               d="m 2.625,0.09375 c -0.4375,0 -1.03125,-0.0625 -1.78125,-0.1875 l -0.359375,-0.046875 0.109375,-0.75 c 0.863281,0.117187 1.523438,0.171875 1.984375,0.171875 0.863281,0 1.296875,-0.394531 1.296875,-1.1875 C 3.875,-2.125 3.828125,-2.296875 3.734375,-2.421875 3.648438,-2.554688 3.507812,-2.660156 3.3125,-2.734375 3.113281,-2.816406 2.835938,-2.898438 2.484375,-2.984375 1.960938,-3.097656 1.554688,-3.226562 1.265625,-3.375 0.984375,-3.53125 0.773438,-3.726562 0.640625,-3.96875 0.503906,-4.207031 0.4375,-4.519531 0.4375,-4.90625 c 0,-0.613281 0.179688,-1.070312 0.546875,-1.375 0.363281,-0.3125 0.90625,-0.46875 1.625,-0.46875 0.257813,0 0.539063,0.015625 0.84375,0.046875 0.3125,0.03125 0.71875,0.089844 1.21875,0.171875 l -0.078125,0.75 C 3.707031,-5.875 3.070312,-5.921875 2.6875,-5.921875 c -0.886719,0 -1.328125,0.320313 -1.328125,0.953125 0,0.242188 0.046875,0.429688 0.140625,0.5625 0.101562,0.136719 0.265625,0.25 0.484375,0.34375 0.21875,0.085938 0.550781,0.179688 1,0.28125 0.457031,0.117188 0.8125,0.246094 1.0625,0.390625 0.257813,0.136719 0.445313,0.320313 0.5625,0.546875 0.125,0.21875 0.1875,0.511719 0.1875,0.875 0,0.6875 -0.1875,1.203125 -0.5625,1.546875 C 3.867188,-0.078125 3.332031,0.09375 2.625,0.09375 Z m 0,0"
               transform="translate(271.341,270.417)"
               id="path559" />
          </g>
        </g>
      </g>
      <path
         fill="#e4b548"
         d="m 493.27181,240.65687 2.15625,-1.07422 c 2.53907,3.51953 7.36329,4.74218 11.33986,2.60156 4.125,-2.22266 5.80077,-7.36719 3.78514,-11.60547 -2.13281,-4.46875 -7.49218,-6.30859 -11.90234,-4.11328 -1.53516,0.76562 -2.75,1.91797 -3.58593,3.27734 l -4.05469,-8.17578 -13.66016,-0.85156 c -2.30077,-0.14844 -4.28516,1.60547 -4.42969,3.91406 -0.14453,2.30469 1.60547,4.29297 3.91017,4.4375 l 8.84764,0.55469 1.29298,2.60937 -3.12891,4.82813 8.77734,17.70703 7.85157,0.41406 -7.19923,-14.52343"
         id="path567" />
      <path
         fill="#ffffff"
         d="m 472.77963,263.69593 2.00782,1.33594 c -1.77345,3.96484 -0.41798,8.76562 3.42187,11.14453 3.98047,2.46875 9.26563,1.34765 11.91797,-2.51953 2.79688,-4.08204 1.70703,-9.65625 -2.39453,-12.38672 -1.42969,-0.94922 -3.03125,-1.42578 -4.625,-1.47266 l 5.03516,-7.60547 -6.08985,-12.28515 c -1.02734,-2.06641 -3.53125,-2.91407 -5.59765,-1.88282 -2.06641,1.02735 -2.91016,3.53907 -1.88281,5.60938 l 3.94531,7.95703 -1.60938,2.42578 -5.73828,-0.30078 -10.91015,16.47266 3.57031,7.01953 8.94922,-13.51172"
         id="path569" />
      <path
         fill="#e4b548"
         d="m 442.61947,257.43421 -0.14843,2.41016 c -4.3125,0.4414 -7.78125,4.01953 -7.91798,8.53906 -0.14452,4.6914 3.46486,8.71875 8.13282,9.08594 4.92968,0.38671 9.19922,-3.34766 9.50781,-8.26954 0.10548,-1.71484 -0.28125,-3.34375 -1.03906,-4.7539 l 9.08984,0.57031 7.57031,-11.42969 c 1.27735,-1.92578 0.75391,-4.52343 -1.16797,-5.80078 -1.92187,-1.27734 -4.51562,-0.7539 -5.78906,1.17188 l -4.90234,7.40234 -2.90235,-0.17969 -2.60937,-5.13281 -19.69141,-1.23437 -4.28515,6.60937 16.15234,1.01172"
         id="path571" />
      <path
         fill="#ffffff"
         d="m 432.95542,228.12952 -2.16017,1.07422 c -2.53515,-3.51953 -7.36328,-4.74219 -11.33983,-2.60156 -4.125,2.22265 -5.80079,7.36719 -3.78125,11.60156 2.12889,4.46875 7.49218,6.3125 11.89843,4.11719 1.53515,-0.76563 2.75,-1.91797 3.58594,-3.28125 l 4.05468,8.17578 13.66407,0.85547 c 2.30077,0.14453 4.28516,-1.60938 4.42577,-3.91406 0.14454,-2.3086 -1.60546,-4.29688 -3.90625,-4.4375 l -8.84764,-0.55469 -1.29298,-2.61328 3.12891,-4.82813 -8.78125,-17.70312 -7.85156,-0.41407 7.20313,14.52344"
         id="path573" />
      <path
         fill="#e4b548"
         d="m 453.4476,205.08655 -2.00781,-1.33593 c 1.77343,-3.96094 0.41406,-8.76172 -3.42187,-11.14063 -3.98438,-2.46875 -9.26954,-1.35156 -11.91798,2.51953 -2.79688,4.08203 -1.71094,9.65625 2.39453,12.38281 1.42578,0.94922 3.03125,1.42969 4.625,1.47266 l -5.03906,7.60938 6.09375,12.28125 c 1.02344,2.07031 3.53125,2.91406 5.59765,1.88671 2.06641,-1.02734 2.90625,-3.53906 1.88282,-5.60937 l -3.94532,-7.95703 1.60547,-2.42969 5.73828,0.30469 10.91016,-16.47266 -3.56641,-7.02343 -8.94921,13.51171"
         id="path575" />
      <path
         fill="#ffffff"
         d="m 483.60385,211.35218 0.15234,-2.41016 c 4.3125,-0.4414 7.78125,-4.01953 7.91798,-8.54297 0.14062,-4.6875 -3.46875,-8.71484 -8.13673,-9.08203 -4.92577,-0.38672 -9.19922,3.34375 -9.50781,8.26953 -0.10547,1.71485 0.28515,3.34375 1.04297,4.75 l -9.09375,-0.5664 -7.57031,11.42578 c -1.27344,1.92578 -0.75,4.52344 1.17188,5.80078 1.92187,1.28125 4.51171,0.75391 5.78905,-1.17188 l 4.90234,-7.40234 2.90236,0.18359 2.60937,5.13282 19.6875,1.23047 4.28516,-6.60547 -16.15234,-1.01172"
         id="path577" />
    </g>
  </g>
</svg>
